<svg width="114" height="39" viewBox="0 0 114 39" fill="none" xmlns="http://www.w3.org/2000/svg">
<path d="M0 12.998V20.2182C2.45682 20.2165 4.88987 20.7013 7.15992 21.6448C9.42998 22.5884 11.4925 23.9723 13.2294 25.7172C14.9659 27.4615 16.3431 29.5324 17.2821 31.8115C18.2212 34.0906 18.7037 36.5332 18.7021 38.9998H25.8866C25.8801 32.1066 23.1508 25.4975 18.2977 20.6228C13.4446 15.7481 6.86402 13.0059 0 12.998H0Z" fill="black"/>
<path d="M35.9292 0H24.5435C30.3033 3.66562 35.1838 8.56616 38.8347 14.3499V2.91576C38.8342 2.14227 38.5278 1.40063 37.983 0.853882C37.4382 0.307129 36.6995 -1.91397e-07 35.9292 0Z" fill="black"/>
<path d="M7.15381 0H0V6.50068C8.58023 6.50965 16.8065 9.93652 22.8737 16.0294C28.941 22.1222 32.3536 30.3833 32.3628 39H38.8349V31.8158C37.3716 23.9199 33.5616 16.654 27.9065 10.9749C22.2514 5.29577 15.0163 1.46955 7.15381 0Z" fill="black"/>
<path d="M56.4448 4.29297H51.8848V27.3748H56.4448V4.29297Z" fill="black"/>
<path d="M73.2113 14.2933C72.4521 13.6003 71.5636 13.0655 70.5971 12.72C68.5209 11.9879 66.2583 11.9879 64.1821 12.72C63.2152 13.0653 62.3263 13.6001 61.5669 14.2933C60.8222 14.9828 60.2273 15.8193 59.8194 16.7503C59.3977 17.7661 59.1807 18.8556 59.1807 19.956C59.1807 21.0565 59.3977 22.146 59.8194 23.1617C60.2257 24.0955 60.8208 24.9342 61.5669 25.6249C62.325 26.3186 63.2134 26.8532 64.1801 27.1972C66.2561 27.9306 68.5191 27.9306 70.595 27.1972C71.562 26.8532 72.4508 26.3186 73.2092 25.6249C73.955 24.934 74.5501 24.0953 74.9568 23.1617C75.3784 22.146 75.5955 21.0565 75.5955 19.956C75.5955 18.8556 75.3784 17.7661 74.9568 16.7503C74.5493 15.8196 73.955 14.9832 73.2113 14.2933ZM70.08 22.6742C69.3415 23.3422 68.3829 23.7119 67.3891 23.7119C66.3953 23.7119 65.4367 23.3422 64.6982 22.6742C64.0776 21.9048 63.739 20.9447 63.739 19.9545C63.739 18.9643 64.0776 18.0042 64.6982 17.2348C65.4367 16.5668 66.3953 16.1971 67.3891 16.1971C68.3829 16.1971 69.3415 16.5668 70.08 17.2348C70.7006 18.0042 71.0392 18.9643 71.0392 19.9545C71.0392 20.9447 70.7006 21.9048 70.08 22.6742Z" fill="black"/>
<path d="M89.5824 14.4911H89.5251C89.3142 14.1938 89.0693 13.9223 88.7954 13.6824C88.4636 13.3876 88.0963 13.1359 87.7019 12.9332C86.7052 12.4196 85.5988 12.1578 84.4786 12.1706C83.497 12.1533 82.5262 12.3789 81.6519 12.8274C80.8372 13.2511 80.1178 13.8383 79.5384 14.5527C78.9476 15.289 78.4944 16.1266 78.2007 17.0251C77.8883 17.9507 77.7292 18.9214 77.7295 19.8988C77.718 20.9478 77.8931 21.9905 78.2467 22.9777C78.567 23.8786 79.0663 24.7048 79.7142 25.406C80.3598 26.0922 81.1432 26.6327 82.0126 26.9916C82.9579 27.3785 83.971 27.5705 84.9917 27.5561C85.7466 27.543 86.4931 27.3932 87.195 27.1138C87.9822 26.8139 88.6643 26.2882 89.1562 25.602H89.2175V27.0388C89.2346 27.5181 89.156 27.9959 88.9862 28.4442C88.8165 28.8924 88.5591 29.302 88.2293 29.6488C87.8107 30.0206 87.3214 30.3033 86.7909 30.4797C86.2604 30.6562 85.6997 30.7226 85.1429 30.6751C84.26 30.685 83.385 30.508 82.5747 30.1558C81.7685 29.794 81.0163 29.3215 80.3397 28.7518L77.8164 32.5337C78.8478 33.368 80.0533 33.9577 81.3432 34.259C82.6196 34.5537 83.9252 34.7021 85.2349 34.7013C88.1128 34.7013 90.2558 33.9736 91.6641 32.5183C93.0724 31.063 93.7769 28.931 93.7776 26.1223V12.537H89.5875L89.5824 14.4911ZM89.3085 21.2535C89.1286 21.6879 88.865 22.0824 88.5328 22.4143C88.1946 22.7527 87.7982 23.0267 87.3626 23.223C86.9104 23.4247 86.4211 23.5289 85.9263 23.5289C85.4314 23.5289 84.9421 23.4247 84.4899 23.223C84.0602 23.0239 83.6689 22.7501 83.334 22.4143C83.0004 22.0796 82.7358 21.6822 82.5552 21.2448C82.3747 20.8073 82.2817 20.3384 82.2817 19.8649C82.2817 19.3914 82.3747 18.9225 82.5552 18.485C82.7358 18.0476 83.0004 17.6502 83.334 17.3155C83.6691 16.9797 84.0603 16.7056 84.4899 16.5058C84.9423 16.3048 85.4315 16.2009 85.9263 16.2009C86.421 16.2009 86.9102 16.3048 87.3626 16.5058C87.798 16.7028 88.1944 16.9771 88.5328 17.3155C89.0345 17.8219 89.3758 18.466 89.5138 19.1667C89.6518 19.8674 89.5804 20.5934 89.3085 21.2535Z" fill="black"/>
<path d="M110.909 14.2933C110.149 13.6003 109.261 13.0655 108.294 12.72C106.218 11.9879 103.956 11.9879 101.879 12.72C100.913 13.0653 100.024 13.6001 99.2642 14.2933C98.5195 14.9828 97.9245 15.8193 97.5166 16.7503C97.095 17.7661 96.8779 18.8556 96.8779 19.956C96.8779 21.0565 97.095 22.146 97.5166 23.1617C97.923 24.0955 98.5181 24.9342 99.2642 25.6249C100.023 26.3189 100.912 26.8535 101.879 27.1972C103.955 27.9306 106.218 27.9306 108.294 27.1972C109.261 26.8532 110.15 26.3186 110.909 25.6249C111.655 24.9342 112.25 24.0955 112.656 23.1617C113.078 22.146 113.295 21.0565 113.295 19.956C113.295 18.8556 113.078 17.7661 112.656 16.7503C112.248 15.8193 111.653 14.9828 110.909 14.2933ZM107.777 22.6742C107.039 23.3422 106.08 23.7119 105.086 23.7119C104.093 23.7119 103.134 23.3422 102.396 22.6742C101.775 21.9048 101.436 20.9447 101.436 19.9545C101.436 18.9643 101.775 18.0042 102.396 17.2348C103.134 16.5668 104.093 16.1971 105.086 16.1971C106.08 16.1971 107.039 16.5668 107.777 17.2348C108.398 18.0042 108.737 18.9643 108.737 19.9545C108.737 20.9447 108.398 21.9048 107.777 22.6742Z" fill="black"/>
</svg>
